<svg xmlns="http://www.w3.org/2000/svg" xmlns:xlink="http://www.w3.org/1999/xlink" fill="none" version="1.1" width="11.10529613494873" height="7.679999828338623" viewBox="0 0 11.10529613494873 7.679999828338623"><g transform="matrix(0,1,-1,0,11.10529613494873,-11.10529613494873)"><path d="M15.585296134948731,8.67192L17.695046134948733,6.58517L17.695046134948733,6.58517C17.807776134948732,6.47367,17.95756613494873,6.40801,18.11568613494873,6.40069C18.12554613494873,6.40023,18.13542613494873,6.4,18.14529613494873,6.4C18.31625613494873,6.4,18.48009613494873,6.4684,18.60031613494873,6.58994C18.71162613494873,6.70248,18.77728613494873,6.85227,18.78460613494873,7.01039C18.785066134948732,7.02025,18.78529613494873,7.03013,18.78529613494873,7.04C18.78529613494873,7.21096,18.71689613494873,7.3748,18.59535613494873,7.49502L18.59535613494873,7.49502L14.94529613494873,11.1053L11.29542613494873,7.49521L11.29542613494873,7.49521C11.17455523494873,7.37566,11.10623584794873,7.21324,11.105305709838731,7.04351L11.10529613494873,7.04016L11.10529613494873,7.04016C11.10529609680173,6.87148,11.17176533494873,6.70975,11.29027513494873,6.58994C11.40963813494873,6.46926,11.57205313494873,6.40094,11.74178913494873,6.40001L11.745296134948731,6.4C11.91382113494873,6.4,12.075543134948731,6.46647,12.19535613494873,6.58498L12.19535613494873,6.58498L14.30529613494873,8.67192L14.30529613494873,0.64C14.30529613494873,0.286538,14.59183613494873,0,14.94529613494873,0C15.29875613494873,0,15.585296134948731,0.286538,15.585296134948731,0.64L15.585296134948731,8.67192Z" fill-rule="evenodd" fill="#666666" fill-opacity="1"/></g></svg>